-
http:// www. Speed. Cd       
http:// www. Speed. Cd       the fast  and The Hottest Private Tracker on the net

Please Seed back to make the speed Faster!!!

and don't forget to visit      ...... www. Speed. Cd..........
-[img]http://img196.imageshack.us/img196/6612/hobowithashotgunposter.jpg[/img]

[color=blue][size=5][b]Hobo With A Shotgun 2011 HDTV XVID AC3 HQ Hive-CM8[/b][/size][/color]



[b]Thx Hive

CM8 Doing It Right The First Time :D

Source: 1080i hdtv file

Encode:
well the 1080i file was interlaced and very reddish in some scenes and in some not so much, there is no perfect setting for the complete movie, still i tried to find a middle way in the red colourtone that fits most ot the scenes well.
also added sharpness and denoise
enjoy

Video: 720x304 @bitrate 2000 2pass
Audio: English AC3 5.1 @384
Sample: yes included[/b]


[url]http://www.imdb.com/title/tt1640459/[/url]


General
Complete name                    : Hobo.With.A.Shotgun.2011.HDTV.XVID.AC3.HQ.Hive-CM8.avi
Format                           : AVI
Format/Info                      : Audio Video Interleave
File size                        : 1.44 GiB
Duration                         : 1h 26mn
Overall bit rate                 : 2 388 Kbps
Writing application              : Nandub v1.0rc2
Writing library                  : Nandub build 1853/release

Video
ID                               : 0
Format                           : MPEG-4 Visual
Format profile                   : Advanced Simple@L5
Format settings, BVOP            : Yes
Format settings, QPel            : Yes
Format settings, GMC             : No warppoints
Format settings, Matrix          : Default (H.263)
Muxing mode                      : Packed bitstream
Codec ID                         : XVID
Codec ID/Hint                    : XviD
Duration                         : 1h 26mn
Bit rate                         : 1 995 Kbps
Width                            : 720 pixels
Height                           : 304 pixels
Display aspect ratio             : 2.35:1
Frame rate                       : 23.976 fps
Color space                      : YUV
Chroma subsampling               : 4:2:0
Bit depth                        : 8 bits
Scan type                        : Progressive
Bits/(Pixel*Frame)               : 0.380
Stream size                      : 1.20 GiB (84%)
Writing library                  : XviD 1.2.1 (UTC 2008-12-04)

Audio
ID                               : 1
Format                           : AC-3
Format/Info                      : Audio Coding 3
Mode extension                   : CM (complete main)
Codec ID                         : 2000
Duration                         : 1h 26mn
Bit rate mode                    : Constant
Bit rate                         : 384 Kbps
Channel(s)                       : 6 channels
Channel positions                : Front: L C R, Side: L R, LFE
Sampling rate                    : 48.0 KHz
Bit depth                        : 16 bits
Video delay                      : 200ms
Stream size                      : 236 MiB (16%)
Alignment                        : Split accross interleaves
Interleave, duration             : 42 ms (1.00 video frame)
Interleave, preload duration     : 500 ms



Rutger Hauer	 ... 	Hobo
Gregory Smith	... 	Slick		
Molly Dunsworth	... 	Abby
Nick Bateman	... 	Ivan / RIP
Brian Downey	... 	Drake
Jeremy Akerman	... 	Chief Wakeum



A homeless vigilante blows away crooked cops, pedophile Santas, 
and other scumbags with his trusty pump-action shotgun. 


[img]http://img190.imageshack.us/img190/6029/95566455.png[/img]
[img]http://img577.imageshack.us/img577/4315/hhohohohohohohoo.png[/img]
[img]http://img837.imageshack.us/img837/3854/hhohohohohohoo.png[/img]
[img]http://img607.imageshack.us/img607/1920/hhohohohohoo.png[/img]
[img]http://img148.imageshack.us/img148/2941/hhohohohoo.png[/img]
[img]http://img807.imageshack.us/img807/4121/hhohohoo.png[/img]
[img]http://img714.imageshack.us/img714/170/hhohoo.png[/img]
[img]http://img836.imageshack.us/img836/2589/hhoo.png[/img]



Greetz

ViSiON,LUSi,SANTi,MAGNET,THC,T0XiCiNK,IMAGiNE,WBZ,FLAWL3SS,NOVA
Vik,Rapeseed,D2U,SAFC,goldadvance,MEMORY100,KaN1vE,Unevano,Pinnz,Wayne,Mr Hive
and all P2P groups 
Great Work Guys :D


CM8@hushmail.com